# xmcd
#
# Track frame offsets:
#	150
#	18805
#	37442
#	62512
#	83115
#	105957
#	122507
#	141725
#	157917
#	177150
#	193420
#	214797
#	227350
#	249934
#
# Disc length: 3536 seconds
#
# Revision: 17
# Processed by: cddbd v1.5.2PL0 Copyright (c) Steve Scherf et al.
# Submitted via: EZCDAudioConverter 2.4.0.1
#
DISCID=b60dce0e
DTITLE=Zeze di Camargo and Luciano 1996 - Zeze di Camargo and Luciano
DYEAR=1996
DGENRE=Sertanejo
TTITLE0=Indiferença
TTITLE1=Seus Olhos
TTITLE2=Preciso Ser Amado
TTITLE3=Quando A Gente Ama Demais
TTITLE4=Não Tenha Dúvida
TTITLE5=E Deus Por Nós
TTITLE6=Refém De Mim
TTITLE7=Saudade Dos Beatles
TTITLE8=Outra Vez Por Amor
TTITLE9=Brigue Comigo, Mas Não Vá
TTITLE10=Vivendo Por Viver
TTITLE11=Menina
TTITLE12=Sorriso Bonito
TTITLE13=200 Anos
EXTD=
EXTT0=
EXTT1=
EXTT2=
EXTT3=
EXTT4=
EXTT5=
EXTT6=
EXTT7=
EXTT8=
EXTT9=
EXTT10=
EXTT11=
EXTT12=
EXTT13=
PLAYORDER=
